<?xml version="1.0" encoding="utf-8" ?><svg xmlns="http://www.w3.org/2000/svg" xmlns:xlink="http://www.w3.org/1999/xlink" width="1024" height="1024" viewBox="0 0 1024 1024"><path fill="white" d="M0 0L1024 0L1024 1024L0 1024L0 0Z"/><path fill="#50A684" d="M418.813 706.721C509.328 703.352 625.279 742.011 703.043 786.779C696.036 793.752 683.919 803.629 676.048 809.758C672.019 806.565 667.935 803.443 663.797 800.392C633.308 778.59 599.943 761.12 564.656 748.481C557.868 746.08 548.285 741.848 541.521 743.372C514.785 749.398 491.583 764.577 476.075 786.551C497.65 768.927 510.931 761.27 538.888 755.545C533.814 773.857 520.752 787.571 501.719 790.066C483.648 792.436 473.441 792.186 463.214 809.776C463.368 797.912 464.52 787.564 470.508 777.023C483.111 754.836 502.341 743.926 525.937 737.103L526.177 736.849C524.45 735.252 504.456 732.298 500.555 731.675C428.33 720.142 338.893 733.21 278.75 776.932C287.926 773.317 295.599 769.273 305.268 765.936C347.59 751.329 402.107 740.818 446.808 741.597C443.175 758.898 434.771 771.869 420.442 782.049C378.889 811.571 332.043 789.713 286.778 789.341C270.054 789.204 250.763 797.165 235.809 804.591C242.229 794.546 249.344 786.061 257.403 777.331C292.785 739.136 340.582 714.746 392.273 708.511C401.19 707.358 409.83 707.075 418.813 706.721Z"/><path fill="#08315C" d="M569.317 283.097C574.411 278.916 579.584 274.862 586.334 274.422L589.97 274.592C593.556 279.329 599.581 283.122 602.646 287.918L601.63 288.467C615.333 310.507 621.422 317.282 610.845 343.118C612.304 346.765 613.142 347.777 615.413 350.972C620.352 348.072 624.68 343.795 629.355 340.37C634.97 336.256 640.745 332.683 646.564 328.883C646.44 325.516 645.467 316.744 647.469 314.417C648.365 314.701 649.003 314.932 649.875 315.282C652.999 312.744 652.808 307.072 659.145 311.079C668.586 317.389 665.093 327.644 656.765 332.888C645.376 340.059 637.116 351.287 627.328 360.801C611.072 376.6 610.367 371.674 601.461 353.35C599.801 368.8 595.402 389.732 599.59 404.108C602.723 414.863 607.736 427.146 611.428 438.113C611.916 439.477 611.91 439.643 612.605 440.896C609.466 442.405 606.783 445.954 604.261 448.48C593.956 458.8 586.137 457.805 573.381 459.707C572.354 459.406 570.159 458.484 569.071 458.061C565.353 456.289 556.038 453.69 551.565 451.847C547.423 450.14 539.466 446.712 535.543 445.622L532.417 445.075C531.862 444.627 531.313 444.172 530.769 443.71C531.041 442.671 531.237 442.137 531.625 441.132C533.577 434.44 536.24 427.377 538.338 420.501C539.617 415.604 540.427 407.716 541.4 402.363C543.681 389.811 552.126 379.918 559.643 369.776C555.637 358.735 530.631 341.187 523.333 326.774C521.934 324.009 520.796 320.53 521.88 317.465C524.305 310.603 554.683 292.005 562.478 287.947C566.664 288.408 568.067 288.81 572.015 290.099C574.329 289.752 576.739 289.567 579.075 289.347C575.679 285.79 573.698 285.062 569.317 283.097Z"/><path fill="#23AA46" d="M579.075 289.347C585.298 293.379 589.847 299.289 584.572 306.42C582.676 309.016 579.808 310.732 576.623 311.174C564.342 312.937 560.096 298.334 572.015 290.099C574.329 289.752 576.739 289.567 579.075 289.347Z"/><path fill="#23AA46" d="M611.428 438.113C611.916 439.477 611.91 439.643 612.605 440.896C609.466 442.405 606.783 445.954 604.261 448.48C593.956 458.8 586.137 457.805 573.381 459.707C572.354 459.406 570.159 458.484 569.071 458.061C565.353 456.289 556.038 453.69 551.565 451.847C547.423 450.14 539.466 446.712 535.543 445.622L532.417 445.075C531.862 444.627 531.313 444.172 530.769 443.71C531.041 442.671 531.237 442.137 531.625 441.132C534.282 442.12 539.343 442.544 542.506 443.764C549.816 446.586 556.403 449.303 563.815 452.061C576.684 457.113 590.783 455.131 601.649 446.554C604.293 444.467 608.572 439.278 611.428 438.113Z"/><path fill="#23AA46" d="M586.334 274.422L589.97 274.592C593.556 279.329 599.581 283.122 602.646 287.918L601.63 288.467C599.351 287.13 588.436 276.67 586.334 274.422Z"/><path fill="white" d="M561.624 309.572L562.087 309.597C563.295 310.649 566.656 322.088 567.108 324.229C569.223 334.253 567.605 348 562.095 356.731C559.855 353.877 557.489 350.42 555.345 347.442C549.934 340.194 542.863 329.518 539.29 321.254C536.571 314.964 557.146 310.754 561.624 309.572Z"/><path fill="#B0D07D" d="M434.06 481.522C417.64 481.694 417.224 488.397 417.336 502.432C417.376 508.976 417.461 515.519 417.593 522.062C417.776 528.902 419.478 538.248 413.361 542.962C406.052 548.633 394.89 546.733 389.475 539.347C383.349 530.991 388.434 521.254 391.178 512.782C395.128 500.506 399.255 488.288 403.556 476.131L433.93 386.393C439.47 370.42 444.766 354.363 449.816 338.228C452.474 329.977 455.373 321.119 458.286 312.918C459.175 310.795 461.7 308.759 463.61 307.631C471.211 302.948 478.713 304.608 483.011 312.633C502.065 348.209 518.922 385.086 538.338 420.501C536.24 427.377 533.577 434.44 531.625 441.132C531.237 442.137 531.041 442.671 530.769 443.71C531.313 444.172 531.862 444.627 532.417 445.075C531.296 451.234 528.158 461.021 523.97 465.858C517.612 473.203 509.383 472.24 500.723 473.002C510.468 465.482 525.082 464.197 517.304 447.04C506.908 424.108 494.706 402.074 483.51 379.53C480.954 374.384 478.484 368.743 475.388 363.959C460.838 402.87 447.059 442.066 434.06 481.522Z"/><path fill="#08315C" d="M612.605 440.896C612.608 441.055 612.638 443.176 612.637 443.175C615.203 449.481 619.844 455.075 622.965 461.179C625.859 466.728 627.934 470.798 630.118 476.358C633.743 485.585 631.849 495.997 634.297 504.971C638.392 519.981 643.981 534.777 648.281 549.773C649.988 555.726 652.182 562.113 653.061 568.207C659.399 568.499 665.924 571.021 672.424 571.476C675.914 571.724 679.42 571.64 682.894 571.223C688.421 570.587 697.439 567.561 701.313 571.666C706.934 585.123 653.622 611.084 646.516 602.084C644.947 597.122 644.488 587.327 643.387 581.551C640.687 567.39 630.676 550.694 622.208 539.171C615.277 554.144 599.835 562.67 584.077 555.524C580.53 553.91 577.419 551.473 575.003 548.415C571.955 544.63 567.86 536.423 565.451 531.901C560.485 522.651 555.619 513.347 550.851 503.993L554.518 500.81L567.481 525.84C570.412 531.5 575.32 541.73 579.29 546.189C581.939 549.205 585.373 551.428 589.21 552.611C595.351 554.492 602.208 553.162 607.753 550.066C613.593 546.805 616.772 540.889 619.921 535.237C614.812 524.966 611.936 518.626 610.388 506.912C609.834 502.722 608.882 493.203 607.518 489.63C602.944 477.642 583.917 465.652 573.381 459.707C586.137 457.805 593.956 458.8 604.261 448.48C606.783 445.954 609.466 442.405 612.605 440.896Z"/><path fill="#08315C" d="M583.842 222.062C590.25 216.929 594.419 214.431 603.228 215.14C612.982 215.925 616.881 221.553 626.549 221.667L626.661 222.474C625.688 223.582 625.114 224.233 624.265 225.475C624.59 226.665 624.922 227.11 625.759 228.009C630.32 232.911 626.682 240.786 624.696 246.129C625.883 252.138 627.349 255.313 629.077 260.994C627.071 261.551 625.093 262.133 623.057 262.568C621.997 268.371 620.593 273.146 617.853 278.334L606.448 275.76C605.273 278.919 604.682 281.015 603.83 284.279C605.235 286.073 605.515 286.249 606.04 288.388L605.678 289.114C604.375 289.234 603.773 288.64 602.646 287.918C599.581 283.122 593.556 279.329 589.97 274.592C590.173 271.282 590.462 267.953 590.304 264.645C579.981 250.898 571.799 245.055 581.179 226.399C575.841 227.37 572.108 228.506 568.881 233.318C565.843 237.849 563.774 244.774 562.391 250.067C556.77 271.567 543.903 284.048 521.065 284.549L521.479 282.985C537.354 278.561 544.584 270.294 549.877 254.887C543.112 264.788 537.311 274.254 524.126 276.758C517.822 277.934 511.31 276.522 506.061 272.84C500.965 269.31 494.454 260.704 497.119 254.186C498.956 257.372 498.956 259.67 502.408 262.336C521.113 276.778 535.737 251.366 545.045 238.757C548.163 234.533 551.869 230.748 555.293 227.153C551.879 229.208 549.783 230.437 546.025 233.897C538.049 241.241 531.259 252.411 518.816 252.304C518.665 252.253 518.514 252.201 518.363 252.15C523.872 250.677 526.218 250.213 530.587 246.197C533.618 243.28 536.086 239.126 538.232 235.523C544.255 225.412 553.849 219.673 565.359 217.816C573.243 216.544 577.563 216.688 583.842 222.062Z"/><path fill="#08315C" d="M476.637 382.236C476.779 382.365 476.921 382.494 477.064 382.623C488.739 404.546 499.751 427.25 510.503 449.667C511.66 452.081 512.323 455.807 512.205 457.945C509.007 461.523 476.626 474.266 469.139 477.359C465.468 479.127 461.296 480.529 457.55 482.122C451.162 484.84 447.258 484.483 440.495 483.844C443.866 475.923 446.784 465.748 449.623 457.438L464.677 414.7C468.147 404.842 472.506 391.607 476.637 382.236Z"/><path fill="white" d="M477.198 393.357C480.285 396.392 504.58 448.134 508.046 455.734C495.382 461.152 483.168 466.466 470.376 471.738C463.258 474.432 454.381 478.62 447.32 480.657C451.118 466.958 456.084 453.388 460.833 439.988L477.198 393.357Z"/><path fill="#08315C" d="M508.54 615.583C530.582 615.491 575.053 609.052 564.874 647.277C563.183 653.626 556.051 657.352 550.335 659.403C554.288 665.231 564.058 676.652 568.84 682.94L562.914 682.835L550.931 682.898C546.561 676.528 539.464 667.418 534.602 661.517L523.495 661.481L523.522 682.731C518.578 682.749 513.633 682.792 508.689 682.86L508.54 615.583Z"/><path fill="white" d="M523.428 628.655C531.85 628.624 551.828 626.288 551.669 638.532C551.628 641.703 550.706 642.867 548.614 645.074C541.976 649.443 531.369 648.209 523.427 648.048C523.328 641.584 523.328 635.119 523.428 628.655Z"/><path fill="#08315C" d="M535.543 445.622C539.466 446.712 547.423 450.14 551.565 451.847C556.038 453.69 565.353 456.289 569.071 458.061C565.22 468.552 551.196 496.5 542.159 502.797C536.487 502.686 531.126 502.036 525.51 501.547C505.884 499.839 482.743 498.872 464.384 506.652C463.475 507.158 462.146 507.966 461.221 508.323C458.019 503.469 457.162 499.538 456.775 493.808C459.501 491.198 461.413 489.321 465.052 488.067C484.487 477.297 505.122 475.576 526.695 476.93C530.353 466.708 533.309 456.247 535.543 445.622Z"/><path fill="#B0D07D" d="M456.775 493.808C459.501 491.198 461.413 489.321 465.052 488.067C460.982 494.293 460.64 494.966 461.083 502.282C462.237 504.041 462.876 505.213 464.384 506.652C463.475 507.158 462.146 507.966 461.221 508.323C458.019 503.469 457.162 499.538 456.775 493.808Z"/><path fill="#08315C" d="M302.576 615.127C307.146 615.106 311.717 615.137 316.286 615.22C326.569 628.356 338.24 644.493 348.016 658.086L347.821 615.145L362.484 615.182L362.452 682.672L348.719 682.62C338.77 668.489 327.297 654.268 317.095 639.913L317.106 682.614L302.535 682.767L302.576 615.127Z"/><path fill="#08315C" d="M633.05 615.275C637.496 615.372 641.942 615.428 646.389 615.444C649.152 622.574 653.562 631.474 656.83 638.519C663.737 653.07 670.374 667.747 676.739 682.543L661.451 682.623C660.034 678.968 658.427 675.273 656.901 671.652L644.965 671.629L621.92 671.493C620.689 674.809 618.643 679.222 617.218 682.571C611.989 682.658 606.76 682.796 601.533 682.986C606.379 672.975 610.719 662.59 615.658 652.618C621.717 640.384 626.748 627.353 633.05 615.275Z"/><path fill="white" d="M639.21 633.283C641.095 634.89 649.395 654.893 650.968 658.481L640.625 658.517L627.849 658.568C631.331 650.203 635.468 641.606 639.21 633.283Z"/><path fill="#B0D07D" d="M571.748 464.205C574.376 465.539 581.432 469.85 582.88 472.188C592.839 488.269 600.892 506.55 610.161 523.031C615.732 532.937 609.773 541.512 600.463 545.691C585.017 547.64 583.742 540.39 577.341 529.009C571.715 519.004 566.482 505.806 559.97 496.709L559.504 496.064C564.232 485.2 567.356 474.371 571.748 464.205Z"/><path fill="#08315C" d="M376.522 615.386L390.994 615.395L390.85 641.829C390.811 650.492 389.166 663.761 397.995 668.672C403.379 671.667 412.332 671.355 416.952 666.848C422.845 661.099 421.356 652.427 421.533 644.996C421.533 635.198 421.449 625.326 421.401 615.515L435.818 615.47L435.761 629.565C435.936 643.079 438.691 664.56 429.238 675.617C417.401 689.462 381.581 686.672 378.125 666.267C375.559 651.118 376.552 631.344 376.522 615.386Z"/><path fill="#08315C" d="M468.541 293.11C476.455 292.395 487.321 296.35 491.545 303.032C498.909 314.679 505.504 329.416 511.454 341.788C520.557 360.82 529.984 379.695 539.73 398.406C539.588 401.373 539.353 404.433 539.165 407.406C528.666 387.346 518.449 367.138 508.519 346.79C504.279 338.026 493.306 314.107 488.426 307.129C486.024 303.701 482.686 301.035 478.812 299.449C469.821 295.819 457.679 299.811 452.968 308.394C449.611 314.512 447.208 322.589 444.964 329.277L435.323 358.059L402.462 455.527L388.743 496.038C385.277 506.176 378.281 523.227 379.657 533.868C381.497 548.107 400.037 557.854 412.915 551.309C415.473 550.01 417.577 547.817 420.54 547.251C422.177 548.21 421.84 548.433 422.829 550.56C422.303 551.039 421.765 551.503 421.214 551.952C408.633 562.11 389.072 558.588 379.61 545.96C376.641 541.997 373.312 533.392 374.228 528.285C377.044 512.572 383.339 497.224 388.444 482.12L414.168 405.885L436.512 339.212C437.741 335.562 438.977 331.838 440.226 328.194C446.109 311.031 448.105 297.266 468.541 293.11Z"/><path fill="#08315C" d="M444.066 615.4C462.375 615.33 480.684 615.366 498.992 615.509L498.949 628.591C492.452 628.713 485.732 628.644 479.215 628.661L479.068 662.375L479.132 683.281C474.276 683.163 469.211 683.214 464.337 683.191C464.1 665.307 464.396 646.773 464.441 628.838C457.708 628.703 450.947 628.807 444.149 628.656L444.066 615.4Z"/><path fill="#08315C" d="M461.221 508.323C449.018 515.23 439.522 524.669 440.959 539.892C441.188 542.323 442.41 546.077 440.946 548.206C440.196 549.297 439.048 549.7 437.794 549.885C435.39 550.24 432.183 549.033 430.295 547.591C426.597 544.767 425.794 538.325 425.397 533.968C424.836 527.818 422.946 493.419 426.101 490.261C429.783 486.575 439.489 491.482 444.095 491.68C447.562 491.829 451.205 491.301 454.691 491.164C456.156 491.999 455.819 492.042 456.775 493.808C457.162 499.538 458.019 503.469 461.221 508.323Z"/><path fill="#08315C" d="M685.882 615.35C690.653 615.274 695.739 615.361 700.532 615.368L700.503 682.679L686.023 682.732L685.882 615.35Z"/><path fill="#08315C" d="M579.526 615.072L593.807 615.082C594.161 637.211 593.755 660.677 593.597 682.857L579.47 682.92L579.526 615.072Z"/><path fill="#293D5A" d="M512.058 283.479C515.289 283.403 518.256 283.214 521.479 282.985L521.065 284.549C517.438 284.569 515.618 284.151 512.058 283.479Z"/></svg>